<?xml version="1.0" encoding="utf-8"?>
<!-- Generator: Adobe Illustrator 23.0.0, SVG Export Plug-In . SVG Version: 6.00 Build 0)  -->
<svg version="1.1" id="Layer_1" xmlns="http://www.w3.org/2000/svg" xmlns:xlink="http://www.w3.org/1999/xlink" x="0px" y="0px"
	 viewBox="0 0 1080 1080" style="enable-background:new 0 0 1080 1080;" xml:space="preserve">
<style type="text/css">
	.st0{enable-background:new    ;}
	.st1{clip-path:url(#SVGID_2_);enable-background:new    ;}
	.st2{fill:#3D0F0F;}
	.st3{clip-path:url(#SVGID_4_);enable-background:new    ;}
	.st4{fill:#491111;}
	.st5{fill:#461111;}
	.st6{fill:#441010;}
	.st7{fill:#421010;}
	.st8{fill:#3F0F0F;}
	.st9{clip-path:url(#SVGID_6_);enable-background:new    ;}
	.st10{fill:#9F9F9F;}
	.st11{clip-path:url(#SVGID_8_);enable-background:new    ;}
	.st12{fill:#999999;}
	.st13{fill:#9E9E9E;}
	.st14{fill:#3B0E0E;}
	.st15{fill:#808080;}
	.st16{clip-path:url(#SVGID_10_);enable-background:new    ;}
	.st17{clip-path:url(#SVGID_12_);enable-background:new    ;}
	.st18{clip-path:url(#SVGID_14_);enable-background:new    ;}
	.st19{fill:#858585;}
	.st20{clip-path:url(#SVGID_16_);enable-background:new    ;}
	.st21{fill:#949494;}
	.st22{clip-path:url(#SVGID_18_);enable-background:new    ;}
	.st23{clip-path:url(#SVGID_20_);enable-background:new    ;}
	.st24{clip-path:url(#SVGID_22_);enable-background:new    ;}
	.st25{fill:#8D8D8D;}
	.st26{clip-path:url(#SVGID_24_);enable-background:new    ;}
	.st27{clip-path:url(#SVGID_26_);enable-background:new    ;}
	.st28{clip-path:url(#SVGID_28_);enable-background:new    ;}
	.st29{clip-path:url(#SVGID_30_);enable-background:new    ;}
	.st30{clip-path:url(#SVGID_32_);enable-background:new    ;}
	.st31{clip-path:url(#SVGID_34_);enable-background:new    ;}
	.st32{clip-path:url(#SVGID_36_);enable-background:new    ;}
	.st33{fill:#8F8F8F;}
	.st34{fill:#8A8A8A;}
	.st35{clip-path:url(#SVGID_38_);enable-background:new    ;}
	.st36{clip-path:url(#SVGID_40_);enable-background:new    ;}
	.st37{clip-path:url(#SVGID_42_);enable-background:new    ;}
	.st38{clip-path:url(#SVGID_44_);enable-background:new    ;}
	.st39{fill:#01011B;}
	.st40{clip-path:url(#SVGID_46_);enable-background:new    ;}
	.st41{fill:#01011C;}
	.st42{fill:#01011D;}
	.st43{fill:#01011E;}
	.st44{fill:#01011F;}
	.st45{fill:#010120;}
	.st46{clip-path:url(#SVGID_48_);enable-background:new    ;}
	.st47{fill:#E8E8E8;}
	.st48{clip-path:url(#SVGID_50_);enable-background:new    ;}
	.st49{clip-path:url(#SVGID_52_);enable-background:new    ;}
	.st50{fill:#410F0F;}
	.st51{clip-path:url(#SVGID_54_);enable-background:new    ;}
	.st52{clip-path:url(#SVGID_56_);enable-background:new    ;}
	.st53{clip-path:url(#SVGID_58_);enable-background:new    ;}
	.st54{clip-path:url(#SVGID_60_);enable-background:new    ;}
	.st55{clip-path:url(#SVGID_62_);enable-background:new    ;}
	.st56{clip-path:url(#SVGID_64_);enable-background:new    ;}
	.st57{clip-path:url(#SVGID_66_);enable-background:new    ;}
	.st58{clip-path:url(#SVGID_68_);enable-background:new    ;}
	.st59{clip-path:url(#SVGID_70_);enable-background:new    ;}
	.st60{fill:#6A1919;}
	.st61{fill:#01012E;}
</style>
<g>
	<g>
		<g class="st0">
			<g class="st0">
				<defs>
					<path id="SVGID_1_" class="st0" d="M732.3,762.6c0.3-3.9-0.3-7.8-1.8-11.4l47.8,11.5c1.5,3.6,2.1,7.5,1.8,11.4
						C764.2,770.3,748.2,766.4,732.3,762.6z"/>
				</defs>
				<clipPath id="SVGID_2_">
					<use xlink:href="#SVGID_1_"  style="overflow:visible;"/>
				</clipPath>
				<g class="st1">
					<path class="st2" d="M779.8,776.6L732,765.2c0.8-4.8,0.3-9.6-1.5-13.9l47.8,11.5C780.1,767,780.6,771.9,779.8,776.6"/>
				</g>
			</g>
			<g class="st0">
				<defs>
					<path id="SVGID_3_" class="st0" d="M729,774.1c2-3.6,3.1-7.6,3.3-11.5c15.9,3.8,31.8,7.6,47.8,11.5c0,0,0,0,0,0
						c-15.9-3.8-31.7-7.6-47.6-11.4c15.9,3.8,31.7,7.6,47.6,11.4c-0.3,3.9-1.4,7.8-3.3,11.4C760.8,781.7,744.9,777.9,729,774.1
						c16,3.8,31.9,7.6,47.8,11.4c0,0,0,0,0,0c0,0,0,0,0,0c-15.9-3.8-31.7-7.6-47.6-11.4c15.9,3.8,31.7,7.6,47.6,11.4
						c-2,3.6-4.6,6.5-7.5,8.5c-15.9-3.8-31.7-7.6-47.6-11.4c15.9,3.8,31.7,7.6,47.6,11.4c0,0,0,0-0.1,0
						c-15.9-3.8-31.8-7.6-47.8-11.5C724.4,780.6,727,777.7,729,774.1z"/>
				</defs>
				<clipPath id="SVGID_4_">
					<use xlink:href="#SVGID_3_"  style="overflow:visible;"/>
				</clipPath>
				<g class="st3">
					<path class="st4" d="M759.4,797.2l-47.8-11.5c4.5-0.1,8.9-1.9,12.4-5.3l47.8,11.5C768.3,795.3,763.9,797.2,759.4,797.2"/>
					<path class="st5" d="M771.8,792l-47.8-11.5c1.1-1,2.2-2.2,3.1-3.5l47.8,11.5C774,789.8,772.9,790.9,771.8,792"/>
					<path class="st6" d="M774.9,788.4L727.2,777c0.6-0.9,1.3-1.9,1.8-2.9c0.1-0.2,0.2-0.5,0.4-0.7l47.8,11.5
						c-0.1,0.2-0.2,0.5-0.4,0.7C776.2,786.6,775.6,787.5,774.9,788.4"/>
					<path class="st7" d="M777.1,784.9l-47.8-11.5c0.6-1.2,1.2-2.5,1.6-3.8l47.8,11.5C778.3,782.4,777.7,783.6,777.1,784.9"/>
					<path class="st8" d="M778.7,781.1l-47.8-11.5c0.5-1.5,0.9-3,1.1-4.5l47.8,11.5C779.6,778.1,779.2,779.6,778.7,781.1"/>
					<path class="st2" d="M779.8,776.6L732,765.2c0.8-4.8,0.3-9.6-1.5-13.9l47.8,11.5C780.1,767,780.6,771.9,779.8,776.6"/>
				</g>
			</g>
			<g class="st0">
				<defs>
					<path id="SVGID_5_" class="st0" d="M711.6,785.8c3.4,0,6.8-1.1,9.8-3.1c15.9,3.8,31.8,7.6,47.8,11.5c-3,2-6.3,3.1-9.7,3.1
						c-15.9-3.8-31.8-7.6-47.6-11.4c15.9,3.8,31.8,7.6,47.6,11.4c0,0,0,0,0,0C745.1,793.8,726,789.2,711.6,785.8z"/>
				</defs>
				<clipPath id="SVGID_6_">
					<use xlink:href="#SVGID_5_"  style="overflow:visible;"/>
				</clipPath>
				<g class="st9">
					<path class="st4" d="M759.4,797.2l-47.8-11.5c4.5-0.1,8.9-1.9,12.4-5.3l47.8,11.5C768.3,795.3,763.9,797.2,759.4,797.2"/>
				</g>
			</g>
			<g>
				<polygon class="st10" points="505.2,964.7 457.4,953.2 877,947.7 924.8,959.1 				"/>
			</g>
			<g class="st0">
				<defs>
					<path id="SVGID_7_" class="st0" d="M491.3,963.2l-47.8-11.5c4.5,1.1,9.1,1.6,13.9,1.5l47.8,11.5
						C500.4,964.8,495.8,964.2,491.3,963.2z"/>
				</defs>
				<clipPath id="SVGID_8_">
					<use xlink:href="#SVGID_7_"  style="overflow:visible;"/>
				</clipPath>
				<g class="st11">
					<path class="st12" d="M491.3,963.2l-47.8-11.5c3.4,0.8,6.9,1.3,10.5,1.5l47.8,11.5C498.2,964.5,494.7,964,491.3,963.2"/>
					<path class="st13" d="M501.8,964.6L454,953.2c1.1,0.1,2.3,0.1,3.4,0.1l47.8,11.5C504.1,964.7,502.9,964.7,501.8,964.6"/>
				</g>
			</g>
			<g>
				<polygon class="st4" points="516.1,800.5 468.3,789 711.6,785.8 759.4,797.2 				"/>
			</g>
			<g>
				<polygon class="st14" points="778.2,762.7 730.5,751.2 557.9,339.8 605.6,351.3 				"/>
			</g>
			<g>
				<polygon class="st15" points="777.5,763.2 729.7,751.7 557.1,340.3 604.9,351.8 				"/>
			</g>
			<g class="st0">
				<defs>
					<path id="SVGID_9_" class="st0" d="M557.9,339.8c-1.5-3.5-3.7-6.4-6.4-8.3c15.9,3.8,31.8,7.6,47.8,11.5
						c2.7,1.9,4.9,4.7,6.4,8.3c-15.9-3.8-31.7-7.6-47.6-11.4c15.9,3.8,31.7,7.6,47.6,11.4c0,0,0,0,0,0
						C591.3,347.8,572.2,343.2,557.9,339.8z"/>
				</defs>
				<clipPath id="SVGID_10_">
					<use xlink:href="#SVGID_9_"  style="overflow:visible;"/>
				</clipPath>
				<g class="st16">
					<path class="st2" d="M605.6,351.3l-47.8-11.5c-2.4-5.7-6.7-9.5-11.9-10.8l47.8,11.5C598.9,341.7,603.2,345.5,605.6,351.3"/>
				</g>
			</g>
			<g class="st0">
				<defs>
					<path id="SVGID_11_" class="st0" d="M551.5,331.5c-1.7-1.2-3.5-2-5.4-2.5l47.8,11.5c1.9,0.5,3.8,1.3,5.4,2.5
						C583.3,339.1,567.4,335.3,551.5,331.5c16,3.8,31.8,7.6,47.7,11.4c0,0,0,0,0,0C583.3,339.1,567.4,335.3,551.5,331.5z"/>
				</defs>
				<clipPath id="SVGID_12_">
					<use xlink:href="#SVGID_11_"  style="overflow:visible;"/>
				</clipPath>
				<g class="st17">
					<path class="st2" d="M605.6,351.3l-47.8-11.5c-2.4-5.7-6.7-9.5-11.9-10.8l47.8,11.5C598.9,341.7,603.2,345.5,605.6,351.3"/>
				</g>
			</g>
			<g class="st0">
				<defs>
					<path id="SVGID_13_" class="st0" d="M545.7,330l47.8,11.5c4.7,1.1,9,4.6,11.4,10.3l-47.8-11.5
						C554.7,334.6,550.5,331.1,545.7,330z"/>
				</defs>
				<clipPath id="SVGID_14_">
					<use xlink:href="#SVGID_13_"  style="overflow:visible;"/>
				</clipPath>
				<g class="st18">
					<path class="st19" d="M604.9,351.8l-47.8-11.5c-2.4-5.7-6.6-9.2-11.4-10.3l47.8,11.5C598.2,342.6,602.5,346,604.9,351.8"/>
				</g>
			</g>
			<g>
				<polygon class="st15" points="973.7,869.4 926,857.9 601.2,83.9 649,95.4 				"/>
			</g>
			<g class="st0">
				<defs>
					<path id="SVGID_15_" class="st0" d="M546,329l47.8,11.5c-1.3-0.3-2.6-0.5-4-0.4c-6.9,0.1-13.4,4.5-17.3,11.7l-47.8-11.5
						c3.9-7.2,10.4-11.6,17.3-11.7C543.4,328.6,544.7,328.7,546,329z"/>
				</defs>
				<clipPath id="SVGID_16_">
					<use xlink:href="#SVGID_15_"  style="overflow:visible;"/>
				</clipPath>
				<g class="st20">
					<path class="st21" d="M572.5,351.7l-47.8-11.5c0.6-1,1.2-2,1.8-2.9l47.8,11.5C573.6,349.7,573,350.7,572.5,351.7"/>
					<path class="st12" d="M574.3,348.8l-47.8-11.5c0.9-1.3,2-2.5,3.1-3.5l47.8,11.5C576.3,346.3,575.2,347.5,574.3,348.8"/>
					<path class="st13" d="M577.4,345.3l-47.8-11.5c3.6-3.3,7.9-5.2,12.4-5.3c0.3,0,0.7,0,1,0l47.8,11.5c-0.3,0-0.7,0-1,0
						C585.3,340.1,580.9,342,577.4,345.3"/>
					<path class="st12" d="M590.8,340.1L543,328.6c1,0,2,0.2,3,0.4l47.8,11.5C592.8,340.2,591.8,340.1,590.8,340.1"/>
				</g>
			</g>
			<g class="st0">
				<defs>
					<path id="SVGID_17_" class="st0" d="M570.4,55.9l47.8,11.5c13.4,3.2,24.6,13.2,30.8,28l-47.8-11.5
						C595,69,583.9,59.1,570.4,55.9z"/>
				</defs>
				<clipPath id="SVGID_18_">
					<use xlink:href="#SVGID_17_"  style="overflow:visible;"/>
				</clipPath>
				<g class="st22">
					<path class="st19" d="M649,95.4l-47.8-11.5c-6.2-14.8-17.4-24.8-30.8-28l47.8,11.5C631.6,70.6,642.8,80.5,649,95.4"/>
				</g>
			</g>
			<g class="st0">
				<defs>
					<path id="SVGID_19_" class="st0" d="M560.1,54.7c3.5,0,7,0.3,10.3,1.1l47.8,11.5c-3.3-0.8-6.7-1.2-10.3-1.1
						c-8-1.9-15.9-3.8-23.9-5.7C576.1,58.6,568.1,56.6,560.1,54.7z"/>
				</defs>
				<clipPath id="SVGID_20_">
					<use xlink:href="#SVGID_19_"  style="overflow:visible;"/>
				</clipPath>
				<g class="st23">
					<path class="st4" d="M607.9,66.2l-47.8-11.5c0.9,0,1.8,0,2.6,0l47.8,11.5C609.7,66.2,608.8,66.2,607.9,66.2"/>
					<path class="st5" d="M610.5,66.2l-47.8-11.5c2.6,0.1,5.2,0.5,7.7,1.1l47.8,11.5C615.7,66.7,613.2,66.4,610.5,66.2"/>
				</g>
			</g>
			<g class="st0">
				<defs>
					<path id="SVGID_21_" class="st0" d="M515.1,85c5.1-9.4,11.9-16.9,19.6-22.1c15.9,3.8,31.8,7.6,47.8,11.5
						c-7.7,5.2-14.5,12.7-19.6,22.1C548.5,93.1,529.4,88.5,515.1,85z"/>
				</defs>
				<clipPath id="SVGID_22_">
					<use xlink:href="#SVGID_21_"  style="overflow:visible;"/>
				</clipPath>
				<g class="st24">
					<path class="st6" d="M562.9,96.5L515.1,85c1.4-2.6,3-5.1,4.7-7.5L567.6,89C565.9,91.4,564.3,93.9,562.9,96.5"/>
					<path class="st5" d="M567.6,89l-47.8-11.5c2.5-3.4,5.2-6.5,8.1-9.2l47.8,11.5C572.7,82.6,570,85.6,567.6,89"/>
					<path class="st4" d="M575.6,79.9l-47.8-11.5c9.2-8.6,20.5-13.5,32.3-13.7l47.8,11.5C596.1,66.4,584.9,71.2,575.6,79.9"/>
				</g>
			</g>
			<g>
				<polygon class="st10" points="257.3,932.9 209.5,921.5 524.7,340.2 572.5,351.7 				"/>
			</g>
			<g>
				<polygon class="st4" points="297.5,582.9 249.8,571.4 515.1,85 562.9,96.5 				"/>
			</g>
			<g>
				<polygon class="st10" points="296.8,582.4 249.1,571 514.4,84.6 562.2,96 				"/>
			</g>
			<g>
				<polygon class="st4" points="295.8,586.1 248,574.7 249.8,571.4 297.5,582.9 				"/>
			</g>
			<g>
				<polygon class="st25" points="295.8,586.1 248,574.7 248.2,571 296,582.4 				"/>
			</g>
			<g class="st0">
				<defs>
					<path id="SVGID_23_" class="st0" d="M180.4,967.1l-47.8-11.5c4.9,1.2,10,1.7,15.2,1.7c23.4-0.3,45.9-13.4,61.7-35.9l47.8,11.5
						c-15.8,22.5-38.3,35.6-61.7,35.9C190.3,968.9,185.2,968.3,180.4,967.1z"/>
				</defs>
				<clipPath id="SVGID_24_">
					<use xlink:href="#SVGID_23_"  style="overflow:visible;"/>
				</clipPath>
				<g class="st26">
					<path class="st12" d="M180.4,967.1l-47.8-11.5c3.7,0.9,7.5,1.4,11.4,1.6l47.8,11.5C187.9,968.6,184.1,968,180.4,967.1"/>
					<path class="st13" d="M191.8,968.7L144,957.3c1.2,0.1,2.5,0.1,3.8,0.1c17.5-0.2,34.5-7.6,48.6-20.7l47.8,11.5
						c-14.1,13.1-31.1,20.5-48.6,20.7C194.3,968.8,193,968.8,191.8,968.7"/>
					<path class="st12" d="M244.1,948.1l-47.8-11.5c4.5-4.2,8.6-8.9,12.4-14.1l47.8,11.5C252.7,939.2,248.6,943.9,244.1,948.1"/>
					<path class="st21" d="M256.5,934l-47.8-11.5c0.3-0.3,0.5-0.7,0.7-1l47.8,11.5C257,933.3,256.8,933.6,256.5,934"/>
				</g>
			</g>
			<g>
				<polygon class="st25" points="296,582.4 248.2,571 271.1,224.4 318.9,235.8 				"/>
			</g>
			<g class="st0">
				<defs>
					<path id="SVGID_25_" class="st0" d="M78.6,880.7c15.9,3.8,31.8,7.6,47.8,11.5c0,0,0,0,0,0.1c0.2,3.6,0.5,7,1,10.2
						c5,33.5,25.9,58.2,53,64.7l-47.8-11.5c-27.1-6.5-48-31.2-53-64.7C79.2,887.8,78.8,884.4,78.6,880.7
						C78.6,880.7,78.6,880.7,78.6,880.7z"/>
				</defs>
				<clipPath id="SVGID_26_">
					<use xlink:href="#SVGID_25_"  style="overflow:visible;"/>
				</clipPath>
				<g class="st27">
					<path class="st2" d="M180.4,967.1l-47.8-11.5c-27.1-6.5-47.9-31.2-52.9-64.7c-0.5-3.2-0.8-6.6-1-10.2c-0.2-4.9-0.2-8.5,0-12.1
						l47.8,11.5c-0.2,3.6-0.3,7.2,0,12.1c0.2,3.6,0.5,7,1,10.2C132.4,935.9,153.3,960.6,180.4,967.1"/>
				</g>
			</g>
			<g class="st0">
				<defs>
					<path id="SVGID_27_" class="st0" d="M78.5,871.8c15.9,3.8,31.8,7.6,47.8,11.5c-0.1,2.6,0,5.4,0.1,8.9
						c-15.9-3.8-31.8-7.6-47.8-11.5C78.5,877.2,78.4,874.4,78.5,871.8z"/>
				</defs>
				<clipPath id="SVGID_28_">
					<use xlink:href="#SVGID_27_"  style="overflow:visible;"/>
				</clipPath>
				<g class="st28">
					<path class="st2" d="M180.4,967.1l-47.8-11.5c-27.1-6.5-47.9-31.2-52.9-64.7c-0.5-3.2-0.8-6.6-1-10.2c-0.2-4.9-0.2-8.5,0-12.1
						l47.8,11.5c-0.2,3.6-0.3,7.2,0,12.1c0.2,3.6,0.5,7,1,10.2C132.4,935.9,153.3,960.6,180.4,967.1"/>
				</g>
			</g>
			<g class="st0">
				<defs>
					<path id="SVGID_29_" class="st0" d="M78.5,871.8c0-1.1,0.1-2.1,0.2-3.1l47.8,11.5c-0.1,1-0.1,2.1-0.2,3.1
						C110.4,879.4,94.5,875.6,78.5,871.8z"/>
				</defs>
				<clipPath id="SVGID_30_">
					<use xlink:href="#SVGID_29_"  style="overflow:visible;"/>
				</clipPath>
				<g class="st29">
					<path class="st2" d="M180.4,967.1l-47.8-11.5c-27.1-6.5-47.9-31.2-52.9-64.7c-0.5-3.2-0.8-6.6-1-10.2c-0.2-4.9-0.2-8.5,0-12.1
						l47.8,11.5c-0.2,3.6-0.3,7.2,0,12.1c0.2,3.6,0.5,7,1,10.2C132.4,935.9,153.3,960.6,180.4,967.1"/>
				</g>
			</g>
			<g class="st0">
				<defs>
					<path id="SVGID_31_" class="st0" d="M211.4,291.1c26.9-8.7,49.7-33.6,58.9-66.4l47.8,11.5c-8.6,30.5-28.9,54.2-53.3,64.3
						c-15.9-3.8-31.8-7.6-47.7-11.4c15.9,3.8,31.8,7.6,47.7,11.4c-1.9,0.8-3.7,1.5-5.6,2.1C243.2,298.8,227.3,295,211.4,291.1z"/>
				</defs>
				<clipPath id="SVGID_32_">
					<use xlink:href="#SVGID_31_"  style="overflow:visible;"/>
				</clipPath>
				<g class="st30">
					<path class="st4" d="M235.4,305.8l-47.8-11.5c1.3,0.1,2.6,0.1,3.9,0.1c18.2-0.2,35.6-8.1,49.8-21.3l47.8,11.5
						c-14.2,13.2-31.6,21-49.8,21.3C238,305.9,236.7,305.9,235.4,305.8"/>
					<path class="st5" d="M289.1,284.6l-47.8-11.5c4.5-4.2,8.7-9,12.5-14.2l47.8,11.5C297.9,275.7,293.7,280.4,289.1,284.6"/>
					<path class="st6" d="M301.6,270.4L253.9,259c3.1-4.3,5.9-8.9,8.4-13.8l47.8,11.5C307.6,261.5,304.8,266.1,301.6,270.4"/>
					<path class="st7" d="M310.1,256.6l-47.8-11.5c2.4-4.7,4.5-9.7,6.3-15l47.8,11.5C314.6,246.9,312.5,251.9,310.1,256.6"/>
					<path class="st8" d="M316.4,241.6l-47.8-11.5c0.6-1.8,1.2-3.6,1.7-5.4l47.8,11.5C317.5,238,317,239.8,316.4,241.6"/>
				</g>
			</g>
			<g class="st0">
				<defs>
					<path id="SVGID_33_" class="st0" d="M202,293.5c0.2,0,0.4,0.1,0.5,0.1c0.6,0.1,1.2,0.3,1.7,0.4c0.8,0.2,1.6,0.4,2.5,0.6
						c1.6,0.4,3.2,0.8,4.8,1.1c12.7,3.1,25.5,6.1,38.2,9.2c-3.4,0.6-6.9,0.9-10.4,1c-4.5,0.1-8.8-0.3-13.1-1.2c-9-2.2-18-4.3-27-6.5
						c-0.9-0.2-2.2-0.5-3.1-0.7c-0.9-0.2-2.2-0.5-3.1-0.7c-1.8-0.4-4.2-1-6-1.4c-0.9-0.2-2-0.5-2.9-0.7c-1.7-0.4-3.9-1.1-5.6-1.3
						c4.2,0.8,8.6,1.2,13.1,1.2C195.1,294.4,198.5,294.1,202,293.5z"/>
				</defs>
				<clipPath id="SVGID_34_">
					<use xlink:href="#SVGID_33_"  style="overflow:visible;"/>
				</clipPath>
				<g class="st31">
					<path class="st5" d="M223.6,304.2l-47.8-11.5c3.8,0.9,7.8,1.5,11.8,1.7l47.8,11.5C231.4,305.6,227.4,305.1,223.6,304.2"/>
					<path class="st4" d="M235.4,305.8l-47.8-11.5c1.3,0.1,2.6,0.1,3.9,0.1c18.2-0.2,35.6-8.1,49.8-21.3l47.8,11.5
						c-14.2,13.2-31.6,21-49.8,21.3C238,305.9,236.7,305.9,235.4,305.8"/>
				</g>
			</g>
			<g class="st0">
				<defs>
					<path id="SVGID_35_" class="st0" d="M191.6,293.4c35.5-0.5,67.1-30,78-69.5l47.8,11.5c-10.9,39.5-42.5,69-78,69.5
						c-5.3,0.1-10.5-0.5-15.4-1.7l-47.8-11.5C181.1,292.9,186.3,293.5,191.6,293.4z"/>
				</defs>
				<clipPath id="SVGID_36_">
					<use xlink:href="#SVGID_35_"  style="overflow:visible;"/>
				</clipPath>
				<g class="st32">
					<path class="st12" d="M224,303.2l-47.8-11.5c3.7,0.9,7.6,1.5,11.6,1.6l47.8,11.5C231.6,304.7,227.7,304.1,224,303.2"/>
					<path class="st13" d="M235.6,304.8l-47.8-11.5c1.3,0.1,2.5,0.1,3.8,0.1c18.2-0.2,35.3-8.1,49.2-21l47.8,11.5
						c-13.9,12.9-31,20.8-49.2,21C238.1,304.9,236.9,304.9,235.6,304.8"/>
					<path class="st12" d="M288.6,283.9l-47.8-11.5c4.5-4.2,8.7-8.9,12.4-14.1l47.8,11.5C297.3,275,293.1,279.7,288.6,283.9"/>
					<path class="st21" d="M301,269.8l-47.8-11.5c3.1-4.3,5.9-8.9,8.4-13.8l47.8,11.5C306.9,260.9,304.1,265.5,301,269.8"/>
					<path class="st33" d="M309.4,256l-47.8-11.5c2.4-4.7,4.5-9.6,6.2-14.7l47.8,11.5C313.9,246.4,311.8,251.3,309.4,256"/>
					<path class="st34" d="M315.6,241.3l-47.8-11.5c0.6-1.9,1.2-3.9,1.8-5.8l47.8,11.5C316.9,237.4,316.3,239.3,315.6,241.3"/>
				</g>
			</g>
			<g class="st0">
				<defs>
					<path id="SVGID_37_" class="st0" d="M175.8,292.7c0.9,0.2,1.8,0.4,2.7,0.6c15.9,3.8,31.8,7.6,47.8,11.5
						c-0.9-0.2-1.8-0.4-2.7-0.6C209.3,300.7,190.2,296.1,175.8,292.7z"/>
				</defs>
				<clipPath id="SVGID_38_">
					<use xlink:href="#SVGID_37_"  style="overflow:visible;"/>
				</clipPath>
				<g class="st35">
					<path class="st5" d="M223.6,304.2l-47.8-11.5c3.8,0.9,7.8,1.5,11.8,1.7l47.8,11.5C231.4,305.6,227.4,305.1,223.6,304.2"/>
				</g>
			</g>
			<g class="st0">
				<defs>
					<path id="SVGID_39_" class="st0" d="M221.7,69.4l47.8,11.5c33.5,8,56.7,43.8,53.9,87c-3.3,49.4-39.6,90.1-80.9,90.7l-47.8-11.5
						c41.4-0.5,77.7-41.2,80.9-90.7C278.5,113.3,255.2,77.5,221.7,69.4z"/>
				</defs>
				<clipPath id="SVGID_40_">
					<use xlink:href="#SVGID_39_"  style="overflow:visible;"/>
				</clipPath>
				<g class="st36">
					<path class="st13" d="M242.5,258.6l-47.8-11.5c17.9-0.2,34.9-8,48.7-20.8l47.8,11.5C277.4,250.6,260.4,258.3,242.5,258.6"/>
					<path class="st12" d="M291.1,237.8l-47.8-11.5c4.5-4.2,8.6-8.9,12.4-14l47.8,11.5C299.8,228.9,295.6,233.6,291.1,237.8"/>
					<path class="st21" d="M303.5,223.7l-47.8-11.5c3.1-4.3,5.9-8.8,8.3-13.6l47.8,11.5C309.4,214.9,306.6,219.5,303.5,223.7"/>
					<path class="st33" d="M311.8,210.1l-47.8-11.5c2.4-4.6,4.4-9.5,6.1-14.6l47.8,11.5C316.2,200.6,314.2,205.5,311.8,210.1"/>
					<path class="st34" d="M317.9,195.5l-47.8-11.5c1.9-5.6,3.4-11.5,4.3-17.6l47.8,11.5C321.3,184,319.8,189.9,317.9,195.5"/>
					<path class="st19" d="M322.3,178l-47.8-11.5c0.5-3.3,0.9-6.7,1.1-10.1c2.9-43.2-20.4-79-53.9-87l47.8,11.5
						c33.5,8,56.7,43.8,53.9,87C323.2,171.3,322.8,174.7,322.3,178"/>
				</g>
			</g>
			<g class="st0">
				<defs>
					<path id="SVGID_41_" class="st0" d="M227.3,256.9l-47.8-11.5c4.9,1.2,9.9,1.7,15.2,1.7l47.8,11.5
						C237.2,258.6,232.1,258.1,227.3,256.9z"/>
				</defs>
				<clipPath id="SVGID_42_">
					<use xlink:href="#SVGID_41_"  style="overflow:visible;"/>
				</clipPath>
				<g class="st37">
					<path class="st12" d="M227.3,256.9l-47.8-11.5c3.7,0.9,7.5,1.4,11.5,1.6l47.8,11.5C234.8,258.3,231,257.8,227.3,256.9"/>
					<path class="st13" d="M238.8,258.5L191,247.1c1.2,0.1,2.5,0.1,3.7,0.1l47.8,11.5C241.2,258.6,240,258.6,238.8,258.5"/>
				</g>
			</g>
			<g class="st0">
				<defs>
					<path id="SVGID_43_" class="st0" d="M179.5,245.4c-7.1-1.7-13.8-4.7-19.8-8.7c15.9,3.8,31.8,7.6,47.8,11.5c6,4,12.7,7,19.8,8.7
						C212.9,253.5,193.8,248.9,179.5,245.4z"/>
				</defs>
				<clipPath id="SVGID_44_">
					<use xlink:href="#SVGID_43_"  style="overflow:visible;"/>
				</clipPath>
				<g class="st38">
					<path class="st39" d="M227.3,256.9l-47.8-11.5c-33.5-8-56.7-43.8-53.9-87c0.2-3.4,0.6-6.8,1.1-10.1l47.8,11.5
						c-0.5,3.3-0.9,6.7-1.1,10.1C170.5,213.1,193.8,248.9,227.3,256.9"/>
				</g>
			</g>
			<g class="st0">
				<defs>
					<path id="SVGID_45_" class="st0" d="M125.6,158.4c3.3-49.4,39.6-90.1,80.9-90.7l47.8,11.5c-41.4,0.5-77.7,41.2-80.9,90.7
						c-2.2,34,11.7,63.4,34.1,78.3c-9-2.2-18-4.3-27-6.5c-0.9-0.2-2.2-0.5-3.1-0.7c-1.8-0.4-4.3-1-6.1-1.5c-1.8-0.4-4.1-1-5.9-1.4
						c-1.7-0.4-3.9-1.1-5.6-1.3C137.3,221.9,123.4,192.4,125.6,158.4z"/>
				</defs>
				<clipPath id="SVGID_46_">
					<use xlink:href="#SVGID_45_"  style="overflow:visible;"/>
				</clipPath>
				<g class="st40">
					<path class="st39" d="M227.3,256.9l-47.8-11.5c-33.5-8-56.7-43.8-53.9-87c0.2-3.4,0.6-6.8,1.1-10.1l47.8,11.5
						c-0.5,3.3-0.9,6.7-1.1,10.1C170.5,213.1,193.8,248.9,227.3,256.9"/>
					<path class="st41" d="M174.5,159.8l-47.8-11.5c1-6.1,2.4-11.9,4.3-17.6l47.8,11.5C176.9,147.9,175.5,153.8,174.5,159.8"/>
					<path class="st42" d="M178.8,142.3l-47.8-11.5c1.7-5.1,3.7-9.9,6.1-14.6l47.8,11.5C182.6,132.3,180.5,137.2,178.8,142.3"/>
					<path class="st43" d="M184.9,127.7l-47.8-11.5c2.5-4.8,5.2-9.4,8.3-13.6l47.8,11.5C190.2,118.3,187.4,122.9,184.9,127.7"/>
					<path class="st44" d="M193.3,114.1l-47.8-11.5c3.7-5.2,7.9-9.9,12.4-14l47.8,11.5C201.1,104.2,197,108.9,193.3,114.1"/>
					<path class="st45" d="M205.6,100l-47.8-11.5c13.8-12.8,30.7-20.6,48.7-20.8l47.8,11.5C236.4,79.5,219.4,87.2,205.6,100"/>
				</g>
			</g>
			<g class="st0">
				<defs>
					<path id="SVGID_47_" class="st0" d="M206.5,67.8c5.2-0.1,10.3,0.5,15.2,1.7l47.8,11.5c-4.9-1.2-9.9-1.7-15.2-1.7
						C240,75.8,220.9,71.2,206.5,67.8z"/>
				</defs>
				<clipPath id="SVGID_48_">
					<use xlink:href="#SVGID_47_"  style="overflow:visible;"/>
				</clipPath>
				<g class="st46">
					<path class="st45" d="M254.3,79.2l-47.8-11.5c1.2,0,2.5,0,3.7,0.1L258,79.3C256.8,79.2,255.6,79.2,254.3,79.2"/>
					<path class="st44" d="M258,79.3l-47.8-11.5c3.9,0.2,7.8,0.7,11.5,1.6l47.8,11.5C265.8,80,262,79.5,258,79.3"/>
				</g>
			</g>
			<g>
				<path class="st47" d="M254.4,78.2c41.9-0.6,73.2,39.6,69.8,89.7c-3.3,50.1-39.9,91.1-81.8,91.7c-41.9,0.6-73.2-39.6-69.9-89.7
					C175.9,119.8,212.5,78.8,254.4,78.2z M242.5,258.6c41.4-0.5,77.7-41.2,80.9-90.7s-27.7-89.2-69.1-88.7
					c-41.4,0.5-77.7,41.2-80.9,90.7S201.1,259.1,242.5,258.6"/>
			</g>
			<g class="st0">
				<defs>
					<path id="SVGID_49_" class="st0" d="M227,257.9l-47.8-11.5c-33.9-8.1-57.3-44.3-54.4-88c3.3-50.1,39.9-91.1,81.8-91.7
						l47.8,11.5c-41.9,0.6-78.5,41.6-81.8,91.7C169.7,213.6,193.1,249.7,227,257.9z"/>
				</defs>
				<clipPath id="SVGID_50_">
					<use xlink:href="#SVGID_49_"  style="overflow:visible;"/>
				</clipPath>
				<g class="st48">
					<path class="st19" d="M227,257.9l-47.8-11.5c-33.9-8.1-57.3-44.3-54.4-88c0.2-3.5,0.6-6.9,1.2-10.2l47.8,11.5
						c-0.5,3.4-0.9,6.8-1.2,10.2C169.7,213.6,193.1,249.7,227,257.9"/>
					<path class="st34" d="M173.7,159.7l-47.8-11.5c1-6.1,2.5-12.1,4.4-17.8l47.8,11.5C176.2,147.6,174.7,153.5,173.7,159.7"/>
					<path class="st33" d="M178.1,141.9l-47.8-11.5c1.7-5.1,3.8-10,6.2-14.7l47.8,11.5C181.9,131.8,179.8,136.8,178.1,141.9"/>
					<path class="st21" d="M184.3,127.2l-47.8-11.5c2.5-4.9,5.3-9.5,8.4-13.7l47.8,11.5C189.5,117.7,186.7,122.3,184.3,127.2"/>
					<path class="st12" d="M192.6,113.4l-47.8-11.5c3.8-5.2,7.9-9.9,12.5-14.2l47.8,11.5C200.6,103.5,196.4,108.2,192.6,113.4"/>
					<path class="st13" d="M205.1,99.2l-47.8-11.5c13.9-12.9,31.1-20.8,49.3-21l47.8,11.5C236.2,78.5,219,86.3,205.1,99.2"/>
				</g>
			</g>
			<g class="st0">
				<defs>
					<path id="SVGID_51_" class="st0" d="M223.6,304.2l-47.8-11.5c-28.2-6.8-49.5-32.6-54.1-67.7l47.8,11.5
						C174.1,271.6,195.4,297.4,223.6,304.2z"/>
				</defs>
				<clipPath id="SVGID_52_">
					<use xlink:href="#SVGID_51_"  style="overflow:visible;"/>
				</clipPath>
				<g class="st49">
					<path class="st19" d="M223.6,304.2l-47.8-11.5c-28.2-6.8-49.5-32.6-54.1-67.7l47.8,11.5C174.1,271.6,195.4,297.4,223.6,304.2"
						/>
				</g>
			</g>
			<g>
				<polygon class="st50" points="126.4,880.1 78.7,868.7 121.2,224.9 169,236.3 				"/>
			</g>
			<g>
				<path class="st47" d="M974.5,868.9c16.8,40-10.9,90.7-49.8,91.3l-419.6,5.6c-38.4,0.5-67.1-36.3-64-82.2
					c0.2-2.3,0.4-4.5,0.7-6.8c3.4-25.5,16.2-47.9,33.8-61.9c11.8-9.4,25.8-15.1,40.5-15.3l243.3-3.2c14.1-0.2,24.1-18.5,18-33
					L604.9,351.8c-3-7.2-9-10.8-15.1-10.7c-6.2,0.1-12.6,3.8-16.6,11.2L257.9,933.4c-15.3,21.8-38,36-62.5,36.4
					c-35.4,0.5-63.1-28.1-68.9-67.1c-0.5-3.4-0.8-6.8-1-10.3c-0.2-4.7-0.2-8.5,0-12.2l42.6-644.9c7,40.5,35.1,70.2,71.2,69.7
					c35.5-0.5,67.1-30,78-69.5l-20.6,347L562.2,96c11.1-20.3,28.8-30.6,45.8-30.8c17-0.2,33.4,9.6,41.8,29.6L974.5,868.9z
					 M924.8,959.1c18-0.2,34.8-11.6,45-30.3c10.2-18.7,11.7-41,3.9-59.5L649,95.4c-7.8-18.5-23.1-29.4-41.1-29.2
					c-18,0.2-34.8,11.6-45,30.3L297.5,582.9l-1.8,3.2l0.2-3.7l22.9-346.6c-12.3,40.9-44.6,69.6-79.6,70.1
					c-35.7,0.5-64.4-28.1-69.9-69.5l-43,643.7c-0.2,3.6-0.3,7.2-0.1,11c0.3,4.7,0.6,8.1,1.1,11.3c5.9,39.5,33.9,66.8,68.1,66.4
					c23.4-0.3,45.9-13.4,61.7-35.9l315.2-581.2c3.9-7.2,10.4-11.6,17.3-11.7c6.9-0.1,12.8,4.1,15.8,11.2l172.6,411.4
					c3,7.1,2.4,15.7-1.5,22.9c-3.9,7.2-10.4,11.6-17.3,11.7l-243.3,3.2c-14,0.2-27.8,5.4-40,15.1c-17.9,14.3-30.1,36.6-33.4,61.2
					c-0.3,2-0.6,4.4-0.7,6.7c-3,45.3,25.4,81.7,63.3,81.2L924.8,959.1"/>
			</g>
			<g class="st0">
				<defs>
					<path id="SVGID_53_" class="st0" d="M924.8,959.1L877,947.7c18-0.2,34.8-11.6,45-30.3c10.2-18.7,11.7-41,3.9-59.5l47.8,11.5
						c7.8,18.5,6.3,40.7-3.9,59.5C959.6,947.6,942.8,958.9,924.8,959.1z"/>
				</defs>
				<clipPath id="SVGID_54_">
					<use xlink:href="#SVGID_53_"  style="overflow:visible;"/>
				</clipPath>
				<g class="st51">
					<path class="st13" d="M924.8,959.1L877,947.7c11.8-0.2,23-5.1,32.3-13.7l47.8,11.5C947.8,954.1,936.5,959,924.8,959.1"/>
					<path class="st12" d="M957.1,945.5L909.3,934c2.9-2.7,5.6-5.8,8.1-9.2l47.8,11.5C962.7,939.7,960,942.8,957.1,945.5"/>
					<path class="st21" d="M965.1,936.3l-47.8-11.5c1.7-2.3,3.3-4.8,4.7-7.5c0.3-0.6,0.7-1.2,1-1.8l47.8,11.5
						c-0.3,0.6-0.6,1.2-1,1.8C968.4,931.5,966.8,934,965.1,936.3"/>
					<path class="st33" d="M970.8,927L923,915.6c1.6-3.2,3-6.5,4.1-9.9l47.8,11.5C973.8,920.5,972.4,923.8,970.8,927"/>
					<path class="st34" d="M974.9,917.1l-47.8-11.5c1.3-3.8,2.2-7.7,2.9-11.6l47.8,11.5C977.2,909.5,976.2,913.3,974.9,917.1"/>
					<path class="st19" d="M977.8,905.6L930,894.1c2-12.4,0.7-25-4-36.2l47.8,11.5C978.5,880.6,979.8,893.2,977.8,905.6"/>
				</g>
			</g>
			<g class="st0">
				<defs>
					<path id="SVGID_55_" class="st0" d="M759.5,796.2l-47.8-11.5c14.1-0.2,24.1-18.5,18-33l47.8,11.5
						C783.6,777.7,773.6,796.1,759.5,796.2z"/>
				</defs>
				<clipPath id="SVGID_56_">
					<use xlink:href="#SVGID_55_"  style="overflow:visible;"/>
				</clipPath>
				<g class="st52">
					<path class="st13" d="M759.5,796.2l-47.8-11.5c4.5-0.1,8.6-2,11.8-5l47.8,11.5C768,794.3,764,796.2,759.5,796.2"/>
					<path class="st12" d="M771.3,791.2l-47.8-11.5c1.1-1,2.1-2.2,3-3.4l47.8,11.5C773.4,789.1,772.4,790.2,771.3,791.2"/>
					<path class="st21" d="M774.3,787.8l-47.8-11.5c0.8-1.1,1.5-2.2,2.1-3.4l47.8,11.5C775.8,785.6,775.1,786.8,774.3,787.8"/>
					<path class="st33" d="M776.4,784.4L728.6,773c0.6-1.2,1.1-2.4,1.5-3.6l47.8,11.5C777.5,782,777,783.3,776.4,784.4"/>
					<path class="st34" d="M777.9,780.8l-47.8-11.5c0.5-1.4,0.8-2.8,1.1-4.3l47.8,11.5C778.7,778,778.4,779.4,777.9,780.8"/>
					<path class="st19" d="M779,776.5L731.2,765c0.7-4.4,0.3-9-1.5-13.3l47.8,11.5C779.3,767.5,779.7,772.1,779,776.5"/>
				</g>
			</g>
			<g>
				<polygon class="st10" points="516.1,799.5 468.4,788 711.7,784.8 759.5,796.2 				"/>
			</g>
			<g class="st0">
				<defs>
					<path id="SVGID_57_" class="st0" d="M428.3,804.1c12.2-9.7,26-14.9,40-15.1l47.8,11.5c-14,0.2-27.8,5.4-40,15.1
						c-9.5,7.6-17.4,17.4-23.2,28.7c-15.9-3.8-31.8-7.6-47.8-11.5C410.9,821.5,418.8,811.7,428.3,804.1z"/>
				</defs>
				<clipPath id="SVGID_58_">
					<use xlink:href="#SVGID_57_"  style="overflow:visible;"/>
				</clipPath>
				<g class="st53">
					<path class="st6" d="M452.6,844.7l-47.8-11.5c2.2-4.3,4.7-8.5,7.5-12.3l47.8,11.5C457.3,836.2,454.8,840.4,452.6,844.7"/>
					<path class="st5" d="M460.1,832.4l-47.8-11.5c3.4-4.6,7.1-8.9,11.2-12.8l47.8,11.5C467.3,823.4,463.5,827.7,460.1,832.4"/>
					<path class="st4" d="M471.4,819.6l-47.8-11.5c1.5-1.4,3.1-2.8,4.7-4.1c12.2-9.7,26-14.9,40-15.1l47.8,11.5
						c-14,0.2-27.8,5.4-40,15.1C474.5,816.9,472.9,818.2,471.4,819.6"/>
				</g>
			</g>
			<g class="st0">
				<defs>
					<path id="SVGID_59_" class="st0" d="M405.1,832.8c15.9,3.8,31.8,7.6,47.8,11.5c-5.1,9.9-8.6,21-10.2,32.5
						c-0.3,2-0.6,4.4-0.7,6.7c-2.6,39.5,18.7,72.3,49.4,79.7l-47.8-11.5c-30.7-7.3-52-40.1-49.4-79.7c0.2-2.3,0.5-4.7,0.7-6.7
						C396.5,853.8,400,842.7,405.1,832.8z"/>
				</defs>
				<clipPath id="SVGID_60_">
					<use xlink:href="#SVGID_59_"  style="overflow:visible;"/>
				</clipPath>
				<g class="st54">
					<path class="st2" d="M491.3,963.2l-47.8-11.5c-30.7-7.4-52-40.1-49.3-79.7c0.2-2.3,0.5-4.7,0.7-6.7c0.1-0.9,0.2-1.7,0.4-2.6
						l47.8,11.5c-0.1,0.9-0.3,1.7-0.4,2.6c-0.3,2-0.6,4.4-0.7,6.7C439.3,923,460.6,955.8,491.3,963.2"/>
					<path class="st8" d="M443.1,874.2l-47.8-11.5c0.9-5.5,2.2-10.9,4-16.2L447,858C445.3,863.2,444,868.6,443.1,874.2"/>
					<path class="st7" d="M447,858l-47.8-11.5c1.5-4.6,3.4-9.1,5.6-13.3l47.8,11.5C450.5,849,448.6,853.4,447,858"/>
					<path class="st6" d="M452.6,844.7l-47.8-11.5c2.2-4.3,4.7-8.5,7.5-12.3l47.8,11.5C457.3,836.2,454.8,840.4,452.6,844.7"/>
				</g>
			</g>
			<g class="st0">
				<defs>
					<path id="SVGID_61_" class="st0" d="M491,964.1l-47.8-11.5c-31-7.4-52.5-40.6-49.9-80.6c0.2-2.3,0.4-4.5,0.7-6.8
						c3.4-25.5,16.2-47.9,33.8-61.9c11.8-9.4,25.8-15.1,40.5-15.3l47.8,11.5c-14.7,0.2-28.6,5.9-40.5,15.3
						c-17.6,14-30.4,36.4-33.8,61.9c-0.3,2.2-0.6,4.5-0.7,6.8C438.5,923.6,460,956.7,491,964.1z"/>
				</defs>
				<clipPath id="SVGID_62_">
					<use xlink:href="#SVGID_61_"  style="overflow:visible;"/>
				</clipPath>
				<g class="st55">
					<path class="st19" d="M491,964.1l-47.8-11.5c-31-7.4-52.5-40.6-49.9-80.6c0.2-2.3,0.4-4.5,0.7-6.8c0.1-0.9,0.2-1.8,0.4-2.6
						l47.8,11.5c-0.1,0.9-0.3,1.7-0.4,2.6c-0.3,2.2-0.6,4.5-0.7,6.8C438.5,923.6,460,956.7,491,964.1"/>
					<path class="st34" d="M442.2,874.1l-47.8-11.5c0.9-5.6,2.3-11.1,4-16.3l47.8,11.5C444.5,863,443.1,868.5,442.2,874.1"/>
					<path class="st33" d="M446.3,857.8l-47.8-11.5c1.6-4.7,3.5-9.2,5.7-13.5l47.8,11.5C449.7,848.6,447.8,853.1,446.3,857.8"/>
					<path class="st21" d="M451.9,844.3l-47.8-11.5c2.3-4.4,4.8-8.6,7.7-12.6l47.8,11.5C456.7,835.7,454.2,839.9,451.9,844.3"/>
					<path class="st12" d="M459.6,831.7l-47.8-11.5c3.4-4.7,7.2-9.1,11.4-12.9l47.8,11.5C466.8,822.7,463,827,459.6,831.7"/>
					<path class="st13" d="M470.9,818.8l-47.8-11.5c1.5-1.4,3.1-2.8,4.7-4.1c11.8-9.4,25.8-15.1,40.5-15.3l47.8,11.5
						c-14.7,0.2-28.6,5.9-40.5,15.3C474,816,472.5,817.4,470.9,818.8"/>
				</g>
			</g>
			<g class="st0">
				<defs>
					<path id="SVGID_63_" class="st0" d="M534.7,63c7.7-5.2,16.4-8.1,25.4-8.2l47.8,11.5c-9,0.1-17.7,3-25.4,8.2
						C566.5,70.6,550.6,66.8,534.7,63z"/>
				</defs>
				<clipPath id="SVGID_64_">
					<use xlink:href="#SVGID_63_"  style="overflow:visible;"/>
				</clipPath>
				<g class="st56">
					<path class="st4" d="M575.6,79.9l-47.8-11.5c9.2-8.6,20.5-13.5,32.3-13.7l47.8,11.5C596.1,66.4,584.9,71.2,575.6,79.9"/>
				</g>
			</g>
			<g class="st0">
				<defs>
					<path id="SVGID_65_" class="st0" d="M570.6,54.9l47.8,11.5c-3.4-0.8-6.9-1.2-10.4-1.2c-17,0.2-34.7,10.5-45.8,30.8l-47.8-11.5
						c11.1-20.3,28.8-30.6,45.8-30.8C563.7,53.7,567.2,54.1,570.6,54.9z"/>
				</defs>
				<clipPath id="SVGID_66_">
					<use xlink:href="#SVGID_65_"  style="overflow:visible;"/>
				</clipPath>
				<g class="st57">
					<path class="st21" d="M562.2,96l-47.8-11.5c1.5-2.7,3.1-5.3,4.8-7.6L567,88.4C565.3,90.7,563.7,93.3,562.2,96"/>
					<path class="st12" d="M567,88.4l-47.8-11.5c2.5-3.5,5.3-6.6,8.2-9.3l47.8,11.5C572.2,81.8,569.5,84.9,567,88.4"/>
					<path class="st13" d="M575.1,79.1l-47.8-11.5c9.8-9.1,21.5-13.7,32.8-13.9c0.9,0,1.7,0,2.6,0l47.8,11.5c-0.9,0-1.7-0.1-2.6,0
						C596.6,65.4,584.9,70,575.1,79.1"/>
					<path class="st12" d="M610.6,65.3l-47.8-11.5c2.6,0.1,5.2,0.5,7.8,1.1l47.8,11.5C615.8,65.7,613.2,65.4,610.6,65.3"/>
				</g>
			</g>
			<g class="st0">
				<defs>
					<path id="SVGID_67_" class="st0" d="M180.1,968.1l-47.8-11.5c-27.8-6.7-48.5-32.3-53.5-65.4c-0.5-3.4-0.8-6.8-1-10.3
						c-0.2-4.7-0.2-8.5,0-12.2l47.8,11.5c-0.2,3.8-0.3,7.5,0,12.2c0.2,3.5,0.5,7,1,10.3C131.5,935.8,152.3,961.4,180.1,968.1z"/>
				</defs>
				<clipPath id="SVGID_68_">
					<use xlink:href="#SVGID_67_"  style="overflow:visible;"/>
				</clipPath>
				<g class="st58">
					<path class="st19" d="M180.1,968.1l-47.8-11.5c-27.8-6.7-48.5-32.3-53.5-65.4c-0.5-3.4-0.8-6.8-1-10.3c-0.2-4.7-0.2-8.5,0-12.2
						l47.8,11.5c-0.2,3.8-0.3,7.5,0,12.2c0.2,3.5,0.5,7,1,10.3C131.5,935.8,152.3,961.4,180.1,968.1"/>
				</g>
			</g>
			<g class="st0">
				<defs>
					<path id="SVGID_69_" class="st0" d="M222,68.5l47.8,11.5c-4.9-1.2-10.1-1.8-15.4-1.7l-47.8-11.5
						C211.9,66.7,217.1,67.3,222,68.5z"/>
				</defs>
				<clipPath id="SVGID_70_">
					<use xlink:href="#SVGID_69_"  style="overflow:visible;"/>
				</clipPath>
				<g class="st59">
					<path class="st13" d="M254.4,78.2l-47.8-11.5c1.3,0,2.5,0,3.8,0.1l47.8,11.5C256.9,78.2,255.7,78.2,254.4,78.2"/>
					<path class="st12" d="M258.2,78.3l-47.8-11.5c4,0.2,7.9,0.7,11.6,1.6l47.8,11.5C266,79,262.2,78.5,258.2,78.3"/>
				</g>
			</g>
			<g>
				<path class="st60" d="M607.9,66.2c18-0.2,33.3,10.7,41.1,29.2l324.7,774c7.8,18.5,6.3,40.7-3.9,59.5
					c-10.2,18.7-27.1,30.1-45,30.3l-419.6,5.6c-37.9,0.5-66.3-35.9-63.3-81.2c0.2-2.3,0.5-4.7,0.7-6.7c3.3-24.6,15.5-46.9,33.4-61.2
					c12.2-9.7,26-14.9,40-15.1l243.3-3.2c6.9-0.1,13.4-4.4,17.3-11.7c3.9-7.2,4.5-15.8,1.5-22.9L605.6,351.3
					c-3-7.1-8.9-11.3-15.8-11.2c-6.9,0.1-13.4,4.5-17.3,11.7L257.3,932.9c-15.8,22.5-38.3,35.6-61.7,35.9
					c-34.2,0.5-62.2-26.8-68.1-66.4c-0.5-3.2-0.8-6.6-1-10.2c-0.2-4.9-0.2-8.5,0-12.1L169,236.3c6,41.5,34.6,70,70.4,69.5
					c35-0.5,67.3-29.1,78.7-69.7l-22,346.2l-0.2,3.7l1.8-3.2L562.9,96.5C573.1,77.8,589.9,66.4,607.9,66.2z"/>
			</g>
			<g>
				<polygon class="st25" points="125.6,880.1 77.9,868.7 120.5,223.8 168.2,235.2 				"/>
			</g>
			<g>
				<path class="st61" d="M254.3,79.2c41.4-0.5,72.4,39.2,69.1,88.7c-3.3,49.4-39.6,90.1-80.9,90.7s-72.4-39.2-69.1-88.7
					S213,79.8,254.3,79.2z"/>
			</g>
		</g>
	</g>
</g>
</svg>
