<?xml version="1.0" encoding="utf-8"?>
<!-- Generator: Adobe Illustrator 23.0.0, SVG Export Plug-In . SVG Version: 6.00 Build 0)  -->
<svg version="1.1" id="Layer_1" xmlns="http://www.w3.org/2000/svg" xmlns:xlink="http://www.w3.org/1999/xlink" x="0px" y="0px"
	 viewBox="0 0 1080 1080" style="enable-background:new 0 0 1080 1080;" xml:space="preserve">
<style type="text/css">
	.st0{fill:#751C1C;}
	.st1{fill:#FFFFFF;}
	.st2{fill:#010133;}
</style>
<g>
	<g>
		<g>
			<path class="st0" d="M501,962.9c-46,0-83.4-37.4-83.4-83.4c0-2.4,0.2-4.8,0.3-6.8c2-25,15-47.5,35.6-61.7
				c14-9.7,30.4-14.8,47.4-14.8h293.5c8.2,0,15.5-4.2,19.6-11.3c4.1-7.1,4.1-15.5,0-22.6L572.8,344.4c-4.1-7.1-11.4-11.3-19.6-11.3
				c-8.2,0-15.5,4.2-19.6,11.3L199.5,927.3c-17.4,22.6-43.7,35.6-72.1,35.6c-41.5,0-77.7-28.1-88-68.3c-0.8-3.2-1.5-6.7-2-10.4
				c0-0.2-0.1-0.3-0.1-0.5c0-0.2-0.1-0.4-0.1-0.6c-0.5-3.9-0.8-7.6-0.8-11.2V221.7c0.5,0.1,1,0.2,1.5,0.2c9.8,41.8,46.5,71,89.5,71
				c42.1,0,78.6-28.5,89-69.2c0.7-0.2,1.3-0.4,1.9-0.6v352.3L500.9,86.1c10.9-18.9,30.5-30.2,52.4-30.2c21.9,0,41.5,11.3,52.4,30.2
				l453.8,786.1c10.9,18.9,10.9,41.6,0,60.5c-10.9,18.9-30.5,30.2-52.4,30.2H501z"/>
			<path class="st1" d="M553.3,56.3c21.7,0,41.1,11.2,52,30l453.8,786.1c10.8,18.8,10.8,41.2,0,60c-10.8,18.8-30.3,30-52,30H501
				c-45.7,0-82.9-37.2-82.9-82.9c0-2.4,0.2-4.7,0.3-6.8c2-24.8,14.9-47.2,35.4-61.4c13.9-9.6,30.2-14.7,47.1-14.7h293.5
				c8.3,0,15.8-4.3,20-11.5c4.2-7.2,4.2-15.9,0-23.1L573.3,344.2c-4.2-7.2-11.7-11.5-20-11.5c-8.3,0-15.8,4.3-20,11.5L199.1,927
				c-17.3,22.5-43.4,35.4-71.7,35.4c-41.3,0-77.3-27.9-87.5-67.9c-0.8-3.2-1.5-6.7-2-10.3c0-0.2-0.1-0.3-0.1-0.5
				c0-0.2-0.1-0.4-0.1-0.6c-0.5-3.9-0.8-7.5-0.8-11.1V222.3c0.2,0,0.4,0.1,0.6,0.1c9.9,41.9,46.8,71.1,89.9,71.1
				c42.2,0,78.9-28.5,89.5-69.3c0.3-0.1,0.7-0.2,1-0.3v349.7v3.7l1.9-3.2L501.3,86.3C512.2,67.5,531.6,56.3,553.3,56.3 M553.3,55.3
				c-20.5,0-41.1,10.2-52.8,30.5L218.9,573.5V222.4c-1,0.3-1.9,0.7-2.9,1c-10,39.7-45.8,69.1-88.6,69.1c-43.5,0-79.8-30.3-89.1-71
				c-0.8-0.1-1.6-0.2-2.4-0.4v650.8c0,3.8,0.3,7.6,0.8,11.2c0,0.4,0.1,0.7,0.2,1.1c0.5,3.5,1.2,7,2,10.4
				c10.1,39.5,45.9,68.7,88.5,68.7c29.6,0,55.8-14.1,72.5-35.9l334.2-582.8c4.3-7.4,11.7-11,19.1-11s14.9,3.7,19.1,11l241.2,417.8
				c8.5,14.7-2.1,33.1-19.1,33.1H501c-17.7,0-34.1,5.5-47.7,14.9c-20.1,13.9-33.8,36.4-35.9,62.1c-0.2,2.3-0.3,4.5-0.3,6.9
				c0,46.3,37.5,83.9,83.9,83.9h506.1c47,0,76.3-50.8,52.8-91.5L606.1,85.8C594.3,65.5,573.8,55.3,553.3,55.3L553.3,55.3z"/>
		</g>
	</g>
	<g>
		
			<ellipse transform="matrix(0.2298 -0.9732 0.9732 0.2298 -52.9765 243.5514)" class="st2" cx="127.4" cy="155.2" rx="91" ry="91"/>
		<path class="st1" d="M127.4,64.8c49.9,0,90.5,40.6,90.5,90.5s-40.6,90.5-90.5,90.5s-90.5-40.6-90.5-90.5S77.5,64.8,127.4,64.8
			 M127.4,63.8c-50.5,0-91.5,41-91.5,91.5s41,91.5,91.5,91.5s91.5-41,91.5-91.5S177.9,63.8,127.4,63.8L127.4,63.8z"/>
	</g>
</g>
</svg>
